<?xml version="1.0" encoding="iso-8859-1"?>
<!-- Generator: Adobe Illustrator 19.0.0, SVG Export Plug-In . SVG Version: 6.00 Build 0)  -->
<svg version="1.1" id="Layer_1" xmlns="http://www.w3.org/2000/svg" xmlns:xlink="http://www.w3.org/1999/xlink" x="0px" y="0px"
	 viewBox="0 0 512 512" style="enable-background:new 0 0 512 512;" xml:space="preserve">
<g>
	<path style="fill:#464655;" d="M102.4,418.133c-56.467,0-102.4-45.934-102.4-102.4s45.934-102.4,102.4-102.4
		s102.4,45.934,102.4,102.4S158.867,418.133,102.4,418.133z M102.4,230.4c-47.05,0-85.333,38.284-85.333,85.333
		s38.284,85.333,85.333,85.333s85.333-38.284,85.333-85.333S149.45,230.4,102.4,230.4z"/>
	<path style="fill:#464655;" d="M409.6,418.133c-56.467,0-102.4-45.934-102.4-102.4s45.934-102.4,102.4-102.4
		S512,259.267,512,315.733S466.067,418.133,409.6,418.133z M409.6,230.4c-47.05,0-85.333,38.284-85.333,85.333
		s38.284,85.333,85.333,85.333s85.333-38.284,85.333-85.333S456.65,230.4,409.6,230.4z"/>
</g>
<circle style="fill:#5B5D6E;" cx="102.4" cy="315.733" r="25.6"/>
<circle style="fill:#D5DCED;" cx="409.6" cy="315.733" r="21.333"/>
<path style="fill:#707487;" d="M349.867,93.867h-34.133c-4.717,0-8.533,3.821-8.533,8.533c0,4.713,3.817,8.533,8.533,8.533h34.133
	c9.408,0,17.067,7.654,17.067,17.067h-25.6v17.067h34.133c4.717,0,8.533-3.821,8.533-8.533V128
	C384,109.179,368.691,93.867,349.867,93.867z"/>
<path style="fill:#9BF57D;" d="M417.575,312.691l-68.267-179.196c-1.683-4.404-6.625-6.612-11.017-4.938
	c-4.4,1.679-6.608,6.608-4.933,11.012l2.756,7.237l-117.324,75.426L178.3,141.25l-15.267,7.633l25.767,51.532l-92.916,109.81
	c-2.142,2.533-2.625,6.083-1.225,9.1s4.416,4.942,7.741,4.942h128V307.2H120.8l76.303-90.178l38.464,76.928l15.267-7.633
	l-24.367-48.734c0.005-0.003,0.012-0.004,0.017-0.007l115.842-74.466l5.889,15.458l-81.972,109.291l13.65,10.234l75.505-100.669
	l46.228,121.353c1.3,3.401,4.542,5.491,7.975,5.491c1.008,0,2.042-0.175,3.042-0.558C417.042,322.033,419.25,317.1,417.575,312.691z
	"/>
<path style="fill:#AFB9D2;" d="M256,349.867c-18.825,0-34.133-15.309-34.133-34.133c0-18.825,15.309-34.133,34.133-34.133
	c18.825,0,34.133,15.309,34.133,34.133C290.133,334.558,274.825,349.867,256,349.867z M256,298.667
	c-9.408,0-17.067,7.659-17.067,17.067c0,9.408,7.659,17.067,17.067,17.067c9.408,0,17.067-7.659,17.067-17.067
	C273.067,306.325,265.408,298.667,256,298.667z"/>
<path style="fill:#959CB5;" d="M256,307.2c-4.717,0-8.533,3.817-8.533,8.533v51.2h17.067v-51.2
	C264.533,311.017,260.717,307.2,256,307.2z"/>
<path style="fill:#5B5D6E;" d="M273.067,375.467h-25.6c-4.717,0-8.533-3.817-8.533-8.533s3.817-8.533,8.533-8.533h25.6
	c4.717,0,8.533,3.817,8.533,8.533S277.783,375.467,273.067,375.467z"/>
<path style="fill:#707487;" d="M204.8,153.6h-34.608c-6.592,0-13.191-1.558-19.084-4.505l-9.858-4.929
	c-4.217-2.109-5.925-7.233-3.817-11.45c2.116-4.221,7.225-5.93,11.45-3.817l9.858,4.929c3.534,1.771,7.5,2.704,11.45,2.704H204.8
	c4.717,0,8.533,3.821,8.533,8.533C213.333,149.779,209.517,153.6,204.8,153.6z"/>
<g>
</g>
<g>
</g>
<g>
</g>
<g>
</g>
<g>
</g>
<g>
</g>
<g>
</g>
<g>
</g>
<g>
</g>
<g>
</g>
<g>
</g>
<g>
</g>
<g>
</g>
<g>
</g>
<g>
</g>
</svg>
