<svg xmlns="http://www.w3.org/2000/svg" viewBox="0 0 456.29 456.29"  xmlns:v="https://vecta.io/nano"><path d="M331.82 44.45c3.12 1.63 5.25 4.89 5.25 8.65 0 5.37-4.37 9.75-9.75 9.75-1.35 0-2.63-.28-3.8-.77 5-3.11 8.3-8.64 8.3-14.92v-2.71zm-9 0v2.71c0 3.48-2.07 6.48-5.07 7.82-.12-.61-.18-1.24-.18-1.88 0-3.76 2.13-7.02 5.25-8.65zm-48.91 0c3.12 1.63 5.25 4.89 5.25 8.65 0 5.37-4.38 9.75-9.75 9.75a9.77 9.77 0 0 1-3.8-.77c4.99-3.11 8.3-8.64 8.3-14.92v-2.71zm-9 0v2.71c0 3.48-2.07 6.48-5.07 7.82-.12-.61-.19-1.24-.19-1.88 0-3.76 2.14-7.02 5.26-8.65zm-48.91 0c3.11 1.63 5.25 4.89 5.25 8.65 0 5.37-4.38 9.75-9.76 9.75-1.35 0-2.63-.28-3.8-.77 5-3.11 8.31-8.64 8.31-14.92v-2.71zm-9 0v2.71a8.57 8.57 0 0 1-5.07 7.82c-.12-.61-.19-1.24-.19-1.88 0-3.76 2.14-7.02 5.26-8.65zm-48.92 0c3.12 1.63 5.25 4.89 5.25 8.65 0 5.37-4.37 9.75-9.75 9.75-1.35 0-2.63-.28-3.8-.77 4.99-3.11 8.3-8.64 8.3-14.92v-2.71zm-9 0v2.71c0 3.48-2.07 6.48-5.07 7.82-.12-.61-.19-1.24-.19-1.88 0-3.76 2.14-7.02 5.26-8.65z" fill="#ffffff"/><path d="M378.61 33.14V426c0 11.74-9.55 21.29-21.29 21.29H130.39c-11.74 0-21.3-9.55-21.3-21.29V33.14a20.05 20.05 0 0 0-3.4-11.2h43.39v12.97c-8.17 2.02-14.26 9.4-14.26 18.19 0 10.34 8.42 18.75 18.76 18.75s18.75-8.41 18.75-18.75c0-8.79-6.08-16.16-14.25-18.19V21.94H207v12.97c-8.18 2.02-14.26 9.4-14.26 18.19 0 10.34 8.41 18.75 18.75 18.75s18.76-8.41 18.76-18.75c0-8.79-6.09-16.16-14.25-18.19V21.94h48.91v12.97c-8.17 2.02-14.26 9.4-14.26 18.19 0 10.34 8.42 18.75 18.76 18.75s18.75-8.41 18.75-18.75c0-8.79-6.08-16.16-14.25-18.19V21.94h48.91v12.97c-8.17 2.02-14.25 9.4-14.25 18.19 0 10.34 8.41 18.75 18.75 18.75s18.75-8.41 18.75-18.75c0-8.79-6.08-16.16-14.25-18.19V21.94h35.58c6.18 0 11.21 5.03 11.21 11.2zm-57.78 184.13v-9H166.88v9h153.95zm0-29.79v-9H166.88v9h153.95z" fill="#5b8843"/><path d="M83.97 425.99c0 7.61 2.83 14.57 7.48 19.9-8.03-3.05-13.77-10.81-13.77-19.9V33.14c0-5.63 4.19-10.3 9.62-11.07-2.1 3.18-3.33 6.98-3.33 11.07v392.85z" fill="#5b8843"/><path d="M100.09 426c0 7.82 2.99 14.96 7.87 20.34-8.67-2.7-14.99-10.8-14.99-20.35V33.14c0-3.22 1.37-6.12 3.56-8.17 2.19 2.05 3.56 4.95 3.56 8.17V426z" fill="#ffcc73"/><path d="M387.61 33.14V426c0 16.7-13.59 30.29-30.29 30.29H98.99c-16.71 0-30.31-13.59-30.31-30.3V33.14c0-11.14 9.07-20.2 20.21-20.2h36.52C127.06 5.55 133.66 0 141.54 0a16.46 16.46 0 0 1 11.7 4.84c2.26 2.26 3.77 5.06 4.44 8.1h25.64C184.97 5.55 191.57 0 199.45 0c4.42 0 8.58 1.72 11.7 4.84 2.26 2.26 3.77 5.06 4.44 8.1h25.65C242.88 5.55 249.48 0 257.37 0a16.46 16.46 0 0 1 11.7 4.84c2.25 2.26 3.76 5.06 4.44 8.1h25.64C300.8 5.55 307.4 0 315.28 0c4.42 0 8.58 1.72 11.7 4.84 2.26 2.26 3.77 5.06 4.44 8.1h35.98c11.15 0 20.21 9.06 20.21 20.2zm-9 392.86V33.14c0-6.17-5.03-11.2-11.21-11.2h-35.58v12.97c8.17 2.03 14.25 9.4 14.25 18.19 0 10.34-8.41 18.75-18.75 18.75s-18.75-8.41-18.75-18.75c0-8.79 6.08-16.17 14.25-18.19V21.94h-48.91v12.97c8.17 2.03 14.25 9.4 14.25 18.19 0 10.34-8.41 18.75-18.75 18.75s-18.76-8.41-18.76-18.75c0-8.79 6.09-16.17 14.26-18.19V21.94H216v12.97c8.16 2.03 14.25 9.4 14.25 18.19 0 10.34-8.42 18.75-18.76 18.75s-18.75-8.41-18.75-18.75c0-8.79 6.08-16.17 14.26-18.19V21.94h-48.92v12.97c8.17 2.03 14.25 9.4 14.25 18.19 0 10.34-8.41 18.75-18.75 18.75s-18.76-8.41-18.76-18.75c0-8.79 6.09-16.17 14.26-18.19V21.94h-43.39a20.05 20.05 0 0 1 3.4 11.2V426c0 11.74 9.56 21.29 21.3 21.29h226.93c11.74 0 21.29-9.55 21.29-21.29zM337.07 53.1c0-3.76-2.13-7.02-5.25-8.65v2.71c0 6.28-3.3 11.81-8.3 14.92 1.17.49 2.45.77 3.8.77 5.38 0 9.75-4.38 9.75-9.75zm-14.25-5.94v-2.71c-3.12 1.63-5.25 4.89-5.25 8.65 0 .64.06 1.27.18 1.88 3-1.34 5.07-4.34 5.07-7.82zm-14.16-34.22h13.25a7.43 7.43 0 0 0-1.29-1.73C319.19 9.78 317.3 9 315.28 9c-2.85 0-5.34 1.59-6.62 3.94zm-29.5 40.16c0-3.76-2.13-7.02-5.25-8.65v2.71c0 6.28-3.31 11.81-8.3 14.92a9.77 9.77 0 0 0 3.8.77c5.37 0 9.75-4.38 9.75-9.75zm-14.25-5.94v-2.71c-3.12 1.63-5.26 4.89-5.26 8.65 0 .64.07 1.27.19 1.88 3-1.34 5.07-4.34 5.07-7.82zm-14.16-34.22H264c-.35-.63-.78-1.21-1.3-1.73-1.42-1.43-3.32-2.21-5.33-2.21-2.86 0-5.35 1.59-6.62 3.94zm-29.5 40.16c0-3.76-2.14-7.02-5.25-8.65v2.71c0 6.28-3.31 11.81-8.31 14.92 1.17.49 2.45.77 3.8.77 5.38 0 9.76-4.38 9.76-9.75zM207 47.16v-2.71c-3.12 1.63-5.26 4.89-5.26 8.65 0 .64.07 1.27.19 1.88a8.57 8.57 0 0 0 5.07-7.82zm-14.17-34.22h13.25a7.43 7.43 0 0 0-1.29-1.73C203.36 9.78 201.47 9 199.45 9c-2.85 0-5.34 1.59-6.62 3.94zm-29.5 40.16c0-3.76-2.13-7.02-5.25-8.65v2.71c0 6.28-3.31 11.81-8.3 14.92 1.17.49 2.45.77 3.8.77 5.38 0 9.75-4.38 9.75-9.75zm-14.25-5.94v-2.71c-3.12 1.63-5.26 4.89-5.26 8.65 0 .64.07 1.27.19 1.88 3-1.34 5.07-4.34 5.07-7.82zm-14.16-34.22h13.25c-.34-.63-.78-1.21-1.3-1.73-1.42-1.43-3.31-2.21-5.33-2.21-2.86 0-5.34 1.59-6.62 3.94zm-26.96 433.4c-4.88-5.38-7.87-12.52-7.87-20.34V33.14c0-3.22-1.37-6.12-3.56-8.17-2.19 2.05-3.56 4.95-3.56 8.17v392.85c0 9.55 6.32 17.65 14.99 20.35zm-16.51-.45c-4.65-5.33-7.48-12.29-7.48-19.9V33.14c0-4.09 1.23-7.89 3.33-11.07-5.43.77-9.62 5.44-9.62 11.07v392.85c0 9.09 5.74 16.85 13.77 19.9zm75.43-237.62h153.95v9H166.88zm0-29.79h153.95v9H166.88z"/></svg>