<svg xmlns="http://www.w3.org/2000/svg" viewBox="0 0 25.944 25.944" width="512" height="512"  fill="#5b8843" xmlns:v="https://vecta.io/nano"><circle r="2.372" cy="2.372" cx="14.268"/><path d="M10.987 6.489c.088-.602.555-.964.896-.869l2.475.69c.34.097.457.887.361 1.23l-2.039 8.372c-.1.344-.305.514-.646.416l-1.672-.362c-1.347-1.109-1.339-2.074-1.063-3.406zm-2.123 9.62l-.424 2.965-1.841 4.113c-.567 1.153-.834 1.984-.444 2.192.598.318 1.402-.395 2.244-1.708l2.411-3.838.427-1.398c0 .001-2.097-1.387-2.373-2.326z"/><path d="M16.358 17.336l-3.303-3.28c-.521-.525-1.299-.278-1.826.244s-1.556 1.008-1.037 1.536l4.201 3.537-.465 4.532c-.034 1.118.032 1.766.742 1.84.663.069.955-1.31 1.024-1.659l.952-4.953c.103-.613.165-1.334-.288-1.797zm3.994-9.725l-2.49 1.171-3.137-2.29c-.498-.361-1.197-.249-1.559.252s-.249 1.196.252 1.559l3.383 2.45c.318.229.807.349 1.165.194l2.946-1.817c.653-.428 1.336-.99 1.084-1.462-.358-.678-1.01-.363-1.644-.057z"/><path d="M20.268 6.373v19" stroke="#5b8843" stroke-width="1.142" stroke-linecap="round" stroke-linejoin="round" stroke-miterlimit="10"/><path d="M9.821 6.391l-1.709 5.338c-.225.732-1.01 1.24-2.119.902s-2.26-.804-2.08-2.1c.197-1.412 1.531-3.287 2.688-4.493s3.799-1.624 3.22.353z"/></svg>